<svg id="Capa_1" data-name="Capa 1" xmlns="http://www.w3.org/2000/svg" viewBox="0 0 316 80.56"><title>consupe_logo</title><path d="M39.84,7.88a50.84,50.84,0,0,1,8.62.06A40.52,40.52,0,0,1,79.25,28.35a40.22,40.22,0,0,1,.1,39.09,40.63,40.63,0,0,1-66.05,7A40.29,40.29,0,0,1,3.44,51.21,40.25,40.25,0,0,1,27,11.32,42.84,42.84,0,0,1,39.84,7.88m.52,4.71a36.8,36.8,0,0,0-17.5,6.65,36,36,0,0,0-8.61,8.84A35.3,35.3,0,0,0,17.3,71.77,35.91,35.91,0,0,0,56.94,81,35.51,35.51,0,0,0,71.78,70.16a35.27,35.27,0,0,0,3.11-39.79A35.77,35.77,0,0,0,57.23,15a36.89,36.89,0,0,0-16.87-2.45Z" transform="translate(-3.33 -7.73)"/><path d="M54.18,24.49a4,4,0,0,1,4.34,4.06,3.68,3.68,0,0,1-1.22,2.79,4,4,0,0,1-4.55.6,4.68,4.68,0,0,1-1.59-1.51,4,4,0,0,1,0-4.18,4.19,4.19,0,0,1,3-1.76Z" transform="translate(-3.33 -7.73)"/><path d="M30.93,24.81a4.28,4.28,0,0,1,4,1,3.82,3.82,0,0,1,1,3.73,4,4,0,1,1-4.93-4.75Z" transform="translate(-3.33 -7.73)"/><path d="M45.56,34.5A5.36,5.36,0,0,1,49,32.16a5,5,0,0,1,4.8,2.32A4.93,4.93,0,0,1,54.36,38c-.4,1.86-1.88,3.25-2.47,5,2.38.2,5.07-.49,7.2,1A4.86,4.86,0,0,1,60,51a4.72,4.72,0,0,1-2.67,1.49c-1.91.39-3.88-.06-5.81.17.77,2,2.55,3.69,2.54,6a4.9,4.9,0,0,1-3.93,4.68,4.51,4.51,0,0,1-4-1.06c-1.12-1-1.66-2.42-2.48-3.64-.14-.2-.24-.54-.55-.45-1.13,1.61-1.78,3.77-3.69,4.67a4.85,4.85,0,0,1-6-1.7A4.57,4.57,0,0,1,32.81,57c.52-1.59,1.64-2.87,2.35-4.38-2.2-.17-4.6.39-6.6-.82A4.72,4.72,0,0,1,30,43.22a27,27,0,0,1,4.8-.23,45.94,45.94,0,0,1-2.32-4.16,5.12,5.12,0,0,1-.1-3.21,4.76,4.76,0,0,1,7.67-2.2c1.49,1.31,1.9,3.44,3.32,4.82.81-1.21,1.38-2.53,2.16-3.74Z" transform="translate(-3.33 -7.73)"/><path d="M20.54,44.11a4.14,4.14,0,0,1,4.7,4.58,4.19,4.19,0,0,1-4.82,3.51,4.08,4.08,0,0,1-2.75-1.91,4.28,4.28,0,0,1,0-4.38,4.37,4.37,0,0,1,2.83-1.8Z" transform="translate(-3.33 -7.73)"/><path d="M65.48,44.1A4.22,4.22,0,0,1,70.19,47a3.84,3.84,0,0,1-1,3.71A4.31,4.31,0,0,1,63,50.44a3.92,3.92,0,0,1-.54-4.08,4.21,4.21,0,0,1,3-2.26Z" transform="translate(-3.33 -7.73)"/><path d="M53.6,63.06a4,4,0,1,1,.34,7.77,3.75,3.75,0,0,1-3-2.1,3.9,3.9,0,0,1,.15-3.87,4.25,4.25,0,0,1,2.53-1.8Z" transform="translate(-3.33 -7.73)"/><path d="M31.6,63.21a4.08,4.08,0,0,1,5,3.27,3.9,3.9,0,0,1-1.39,3.62,4,4,0,0,1-6.49-3.68,4.1,4.1,0,0,1,2.94-3.22Z" transform="translate(-3.33 -7.73)"/><path d="M208.5,25.77a17.62,17.62,0,0,1,10.32-1.7,26.72,26.72,0,0,1,8.34,2.46,3,3,0,0,1,1.11.94,35.52,35.52,0,0,1-2.9,5.87c-2.89-1.22-5.74-2.79-8.91-3a5.71,5.71,0,0,0-3.24.5,2,2,0,0,0-.79,1.91,2.82,2.82,0,0,0,1.43,1.88,19.58,19.58,0,0,0,4.43,1.68c2.75.82,5.66,1.71,7.79,3.74a6.61,6.61,0,0,1,2.2,3.94,10.92,10.92,0,0,1-.2,4.72,9.28,9.28,0,0,1-5.29,5.47,15.58,15.58,0,0,1-6.49,1.14,21.61,21.61,0,0,1-13.69-4.72c.28-2.24,1.78-4,2.62-6.09a32.56,32.56,0,0,0,7.75,4,10.38,10.38,0,0,0,5.67.18A2.4,2.4,0,0,0,219.8,45,6.66,6.66,0,0,0,217,43.3c-3.11-1-6.43-1.59-9.23-3.37a7.87,7.87,0,0,1-3.61-6.36,8.65,8.65,0,0,1,4.38-7.8Z" transform="translate(-3.33 -7.73)"/><path d="M113.82,25.47c6.14-2.16,13.63-.79,18.14,4a26.79,26.79,0,0,1-4.2,5.24c-1.09-.65-2-1.56-3-2.28a8.63,8.63,0,0,0-6.8-1.21,8.05,8.05,0,0,0-5.12,3.9,9.67,9.67,0,0,0-.5,8.09,8.28,8.28,0,0,0,4.08,4.46,8.54,8.54,0,0,0,6.53.27c1.81-.57,3.17-1.93,4.78-2.87a30.74,30.74,0,0,1,4.3,4.68,17.27,17.27,0,0,1-19.08,4.28,14.77,14.77,0,0,1-6.66-5.47c-3.47-5.19-3.62-12.57.15-17.62a15.06,15.06,0,0,1,7.4-5.51Z" transform="translate(-3.33 -7.73)"/><path d="M148,24.54a18.14,18.14,0,0,1,9.31,1.56,15,15,0,0,1,8.69,12,15.35,15.35,0,0,1-6.33,14.24,18.32,18.32,0,0,1-17.85,1.33,15.7,15.7,0,0,1-7.22-7.38,15.94,15.94,0,0,1-1.22-8.34,14.58,14.58,0,0,1,4.23-8.84A16.43,16.43,0,0,1,148,24.54m.34,6.55a8.78,8.78,0,0,0-7,7.15,9.54,9.54,0,0,0,.75,5.59A8.85,8.85,0,0,0,148,48.66a8.19,8.19,0,0,0,5.05-.57,9,9,0,0,0,4.87-6.43,15.4,15.4,0,0,0,0-3.4,8.44,8.44,0,0,0-9.6-7.17Z" transform="translate(-3.33 -7.73)"/><path d="M170.37,24.63a33.25,33.25,0,0,1,6.48-.06c.69,0,1.07.7,1.46,1.19,3.12,4.35,6.39,8.59,9.57,12.9a20.27,20.27,0,0,0,3.19,3.81c.23-6,0-11.91.1-17.87a43.27,43.27,0,0,1,7.23,0q.05,15.05,0,30.12a38.16,38.16,0,0,1-6.51,0c-.62,0-1-.57-1.29-1-4.21-5.82-8.54-11.55-12.89-17.25-.23,6.11,0,12.22-.15,18.33a45.29,45.29,0,0,1-7.23-.1c0-10-.05-20,0-30Z" transform="translate(-3.33 -7.73)"/><path d="M232,24.59a51.09,51.09,0,0,1,7.72,0c.08,4.9,0,9.8,0,14.7a18.83,18.83,0,0,0,.4,5.32,5.52,5.52,0,0,0,2.59,3.32,6.85,6.85,0,0,0,5.81.44A6.05,6.05,0,0,0,252.08,43c.14-6.14-.18-12.28.15-18.41,2.52-.1,5-.1,7.57,0,.34,5,0,10.06.15,15.07a20.66,20.66,0,0,1-1.18,8.45,11.26,11.26,0,0,1-6,6,17.47,17.47,0,0,1-9,1.19A13.49,13.49,0,0,1,235,51a11.67,11.67,0,0,1-2.82-6.5,67.79,67.79,0,0,1-.15-7.4c0-4.16-.08-8.34.05-12.5Z" transform="translate(-3.33 -7.73)"/><path d="M265.36,24.59c2.67-.23,5.32-.08,8-.1,2.23,0,4.48-.1,6.71,0a12.83,12.83,0,0,1,6.6,2A9.49,9.49,0,0,1,290,30.64a12.32,12.32,0,0,1,.77,5.46,12,12,0,0,1-2.2,6.33,11.25,11.25,0,0,1-7.1,3.78c-2.74.39-5.5,0-8.24.22-.37,2.75,0,5.52-.14,8.29a50.38,50.38,0,0,1-7.79,0c0-10.05,0-20.09,0-30.12m7.9,6a43.48,43.48,0,0,0,0,9.58c1.66,0,3.31.17,5,0a6.06,6.06,0,0,0,3.29-.8,5.43,5.43,0,0,0,.94-7.27,4.92,4.92,0,0,0-2.85-1.5c-2.1-.4-4.23.07-6.34-.05Z" transform="translate(-3.33 -7.73)"/><path d="M294.73,24.63c4.11-.32,8.24,0,12.35-.13,3.83,0,7.65-.1,11.46.05a25.36,25.36,0,0,1,0,6c-5.27.35-10.56,0-15.84.17a28.08,28.08,0,0,0-.08,5.69c4.76.19,9.55-.08,14.33.1a44.24,44.24,0,0,1,0,6c-4.73.34-9.47,0-14.18.15a24.5,24.5,0,0,0,0,6.06c5.44.14,10.88-.18,16.31.15a23.6,23.6,0,0,1,0,6c-4.93.12-9.87,0-14.8.05-3.14-.05-6.29.13-9.43-.15q-.07-15-.07-30Z" transform="translate(-3.33 -7.73)"/><path d="M104.45,66.21a4.08,4.08,0,0,1,6.11-.41c-.35.42-.72.84-1.06,1.26a2.55,2.55,0,0,0-2-.92A2,2,0,0,0,105.71,68a2.07,2.07,0,0,0,1.51,2.28,2.57,2.57,0,0,0,2.28-.77l1.06,1.12A4.45,4.45,0,0,1,108,71.87a3.78,3.78,0,0,1-3.31-1.23,3.71,3.71,0,0,1-.27-4.43Z" transform="translate(-3.33 -7.73)"/><path d="M113.65,64.72a4.14,4.14,0,0,1,4.1,1.27,3.67,3.67,0,0,1-.22,4.75,4.12,4.12,0,0,1-6-.25,3.63,3.63,0,0,1-.18-4.23,3.67,3.67,0,0,1,2.28-1.54m.5,1.49a2.11,2.11,0,0,0-1.43,2.6,2,2,0,0,0,2.52,1.46,2.15,2.15,0,0,0,1.28-2.75,2,2,0,0,0-2.37-1.31Z" transform="translate(-3.33 -7.73)"/><path d="M119.47,64.67h1.61c1.09,1.46,2.18,2.94,3.27,4.38,0-1.46,0-2.92,0-4.38h1.69v7.15c-.54,0-1.08,0-1.6,0-1.11-1.46-2.2-2.94-3.29-4.39,0,1.46,0,2.92,0,4.38h-1.69c0-2.38,0-4.76,0-7.15Z" transform="translate(-3.33 -7.73)"/><path d="M127.64,65.76a2.42,2.42,0,0,1,1.7-1.07,5.51,5.51,0,0,1,3.71.67,15.65,15.65,0,0,1-.67,1.46,5.24,5.24,0,0,0-2.35-.74c-.34,0-.77.17-.72.57s.44.52.76.64a6.22,6.22,0,0,1,2.55,1.12,2,2,0,0,1-.61,3.07,5,5,0,0,1-5.07-.75c.24-.45.47-.93.7-1.39a4,4,0,0,0,3,1,.57.57,0,0,0,.2-1c-.91-.5-2-.49-2.89-1.16a1.89,1.89,0,0,1-.35-2.38Z" transform="translate(-3.33 -7.73)"/><path d="M134.06,64.69h5.6v1.42h-3.77v1.41h3.42c0,.49,0,1,0,1.43-1.14,0-2.28,0-3.42,0v1.43h3.88c0,.47,0,1,0,1.43h-5.72V64.69Z" transform="translate(-3.33 -7.73)"/><path d="M140.84,64.67h4.28c0,1.68,0,3.35,0,5a2.13,2.13,0,0,1-1.17,2,3.21,3.21,0,0,1-3.76-.89c.29-.39.57-.79.82-1.19a2.51,2.51,0,0,0,1.64.77.74.74,0,0,0,.64-.82c0-1.12,0-2.24,0-3.35-.81,0-1.63,0-2.43,0V64.67Z" transform="translate(-3.33 -7.73)"/><path d="M148.74,64.74a4.11,4.11,0,0,1,4.11,1.21,3.64,3.64,0,0,1-.22,4.85,4.1,4.1,0,0,1-6.09-.54,3.6,3.6,0,0,1,2.2-5.52m.5,1.49a2.14,2.14,0,0,0-1.33,2.69,2,2,0,0,0,2.43,1.37,2.15,2.15,0,0,0,1.31-2.84,2,2,0,0,0-2.42-1.23Z" transform="translate(-3.33 -7.73)"/><path d="M157.94,65a5.09,5.09,0,0,1,4.63.35c-.2.5-.45,1-.69,1.46a5.46,5.46,0,0,0-2.32-.74c-.28,0-.65.09-.74.39a.62.62,0,0,0,.42.69c.89.42,1.95.47,2.72,1.11a2,2,0,0,1,.42,2.35,2.46,2.46,0,0,1-1.78,1.19,5.36,5.36,0,0,1-4.16-1.06l.7-1.41a4.38,4.38,0,0,0,2.73,1.06c.34,0,.79-.19.79-.59s-.44-.61-.76-.72A6,6,0,0,1,157.37,68a2,2,0,0,1,.57-3Z" transform="translate(-3.33 -7.73)"/><path d="M163.44,64.67h1.83V68.5a2.27,2.27,0,0,0,.25,1.24,1.48,1.48,0,0,0,2.4.05,2.35,2.35,0,0,0,.28-1.31c0-1.26,0-2.53,0-3.81.61,0,1.23,0,1.83,0,0,1.42,0,2.85,0,4.28a2.9,2.9,0,0,1-1.21,2.38c-1.56,1-4.11.72-5-1a5.71,5.71,0,0,1-.34-2.67v-3Z" transform="translate(-3.33 -7.73)"/><path d="M171.31,64.67c1.18,0,2.35,0,3.54,0a2.5,2.5,0,0,1,2.25,1.36,2.73,2.73,0,0,1-.87,3.31,5.69,5.69,0,0,1-3.09.43v2h-1.83V64.67m1.83,1.44v2.27a9.57,9.57,0,0,0,1.69-.07,1.14,1.14,0,0,0,.1-2.1,7.45,7.45,0,0,0-1.8-.1Z" transform="translate(-3.33 -7.73)"/><path d="M178.24,64.69h5.6c0,.47,0,1,0,1.42h-3.79v1.41h3.42V69h-3.42v1.43H184v1.43h-5.72V64.69Z" transform="translate(-3.33 -7.73)"/><path d="M185.12,64.67c1.16,0,2.32,0,3.47,0a2.83,2.83,0,0,1,2.35,1.1,2.72,2.72,0,0,1-.92,3.69c.49.77,1,1.56,1.49,2.33h-2.08c-.35-.65-.7-1.33-1.06-2-.49,0-1,0-1.43,0v2h-1.83V64.67M187,66.11v2.27a8.7,8.7,0,0,0,2-.1,1.14,1.14,0,0,0-.07-2.08,9.59,9.59,0,0,0-1.91-.09Z" transform="translate(-3.33 -7.73)"/><path d="M192.52,64.67c.61,0,1.21,0,1.83,0,0,2.38,0,4.75,0,7.13h-1.81V64.67Z" transform="translate(-3.33 -7.73)"/><path d="M198.08,64.75a4.14,4.14,0,0,1,4,1.11,3.64,3.64,0,0,1-.05,4.85,4.11,4.11,0,0,1-6-.27,3.58,3.58,0,0,1,2-5.69m.5,1.49a2.1,2.1,0,0,0-1.34,2.55,2,2,0,0,0,2.43,1.51A2.16,2.16,0,0,0,201,67.36a1.92,1.92,0,0,0-2.38-1.11Z" transform="translate(-3.33 -7.73)"/><path d="M204,64.67c1.19,0,2.37,0,3.56,0a2.8,2.8,0,0,1,2.3,1.17,2.7,2.7,0,0,1-1,3.61l1.49,2.35h-2.08l-1.06-2h-1.41c0,.68,0,1.35,0,2-.61,0-1.23,0-1.83,0V64.67m1.83,1.44v2.27a10.14,10.14,0,0,0,1.9-.08,1.13,1.13,0,0,0,0-2.1,9.45,9.45,0,0,0-1.9-.09Z" transform="translate(-3.33 -7.73)"/><path d="M213.76,64.69c1.86,0,3.72,0,5.59,0v1.41h-3.77v1.41H219V69h-3.41v1.43h3.89v1.43h-5.72c0-2.38,0-4.76,0-7.13Z" transform="translate(-3.33 -7.73)"/><path d="M221.56,65a5.09,5.09,0,0,1,4.63.35c-.2.5-.45,1-.69,1.46a5.46,5.46,0,0,0-2.33-.74c-.33,0-.79.15-.74.56s.37.5.65.61a8.9,8.9,0,0,1,2.48,1,2,2,0,0,1,.37,2.48,2.56,2.56,0,0,1-1.78,1.09,5.27,5.27,0,0,1-4.08-1.07l.7-1.41a4.39,4.39,0,0,0,2.72,1.06c.35,0,.79-.19.79-.61a.7.7,0,0,0-.49-.6c-.94-.41-2.08-.44-2.83-1.19a2,2,0,0,1,.59-3Z" transform="translate(-3.33 -7.73)"/><path d="M226.54,64.66h6.13c0,.49,0,1,0,1.48h-2.15c0,1.9,0,3.78,0,5.67h-1.83V66.15h-2.15V64.66Z" transform="translate(-3.33 -7.73)"/><path d="M233.31,64.67h1.83v3.81a2.06,2.06,0,0,0,.29,1.31,1.52,1.52,0,0,0,2,.35,1.56,1.56,0,0,0,.62-1.33V64.69c.6,0,1.21,0,1.81,0,0,1.44,0,2.87,0,4.32a2.87,2.87,0,0,1-1.24,2.37,3.84,3.84,0,0,1-4.43-.28,3,3,0,0,1-.89-2.25V64.67Z" transform="translate(-3.33 -7.73)"/><path d="M241.18,64.67c1.09,0,2.2,0,3.31,0a3.76,3.76,0,0,1,2.67,1.14,3.67,3.67,0,0,1-.17,5,4,4,0,0,1-2.65,1c-1.06,0-2.12,0-3.17,0,0-2.38,0-4.76,0-7.15M243,66.13v4.23c.79,0,1.7.17,2.38-.34a2.29,2.29,0,0,0-.15-3.63,4.57,4.57,0,0,0-2.23-.27Z" transform="translate(-3.33 -7.73)"/><path d="M249,64.67h1.83v7.15H249V64.67Z" transform="translate(-3.33 -7.73)"/><path d="M254.57,64.67h1.87l3,7.15c-.65,0-1.31,0-2,0-.17-.44-.34-.87-.49-1.31-1,0-2.08,0-3.12,0-.19.44-.35.87-.52,1.31h-1.88q1.54-3.57,3.09-7.15m.86,1.88-1,2.57h2c-.34-.86-.64-1.73-1-2.57Z" transform="translate(-3.33 -7.73)"/><path d="M260.11,64.67h1.61c1.09,1.44,2.15,2.9,3.26,4.35,0-1.44,0-2.9,0-4.35h1.69v7.15c-.54,0-1.06,0-1.59,0-1.11-1.46-2.18-2.92-3.29-4.38v4.36h-1.71V64.67Z" transform="translate(-3.33 -7.73)"/><path d="M267.49,64.66h6.11v1.48h-2.16v5.67h-1.81c0-1.89,0-3.77,0-5.67h-2.13c0-.5,0-1,0-1.49Z" transform="translate(-3.33 -7.73)"/><path d="M274.37,64.67h1.81v7.15h-1.81c0-2.38,0-4.76,0-7.15Z" transform="translate(-3.33 -7.73)"/><path d="M277.61,64.67c.61,0,1.21,0,1.83,0,0,1.86,0,3.74,0,5.6h3v1.53h-4.85V64.67Z" transform="translate(-3.33 -7.73)"/><path d="M291.87,64.67c1.16,0,2.32,0,3.46,0a2.52,2.52,0,0,1,2.35,1.42,2.72,2.72,0,0,1-.84,3.23c-.92.62-2.08.45-3.14.47,0,.68,0,1.35,0,2-.62,0-1.22,0-1.84,0V64.67m1.83,1.44v2.27a8,8,0,0,0,1.78-.1,1.15,1.15,0,0,0,.05-2.06,6.92,6.92,0,0,0-1.83-.1Z" transform="translate(-3.33 -7.73)"/><path d="M298.7,64.67h1.81c0,1.44,0,2.89,0,4.33A1.45,1.45,0,0,0,302,70.38,1.38,1.38,0,0,0,303.42,69c0-1.44,0-2.87,0-4.32h1.81c0,1.44,0,2.87,0,4.32a2.84,2.84,0,0,1-1.41,2.48,4.13,4.13,0,0,1-3.39.15A2.83,2.83,0,0,1,298.7,69c0-1.44,0-2.89,0-4.33Z" transform="translate(-3.33 -7.73)"/><path d="M306.89,65.95a4.11,4.11,0,0,1,5.91-.14l-1.06,1.26a2.43,2.43,0,0,0-2.18-.89A2,2,0,0,0,308,68.13a2.05,2.05,0,0,0,1.49,2.11,2.55,2.55,0,0,0,2.3-.77c.35.37.7.75,1.07,1.12a4.64,4.64,0,0,1-2.38,1.26,3.8,3.8,0,0,1-3.49-1.24,3.69,3.69,0,0,1-.05-4.66Z" transform="translate(-3.33 -7.73)"/><path d="M313.62,64.69h5.61v1.42h-3.77v1.41c1.14,0,2.28,0,3.42,0,0,.47,0,1,0,1.43h-3.4v1.43h3.87v1.43h-5.7V64.69Z" transform="translate(-3.33 -7.73)"/><path d="M285.53,68.13h2.72c0,.38,0,.75,0,1.12h-2.7V68.13Z" transform="translate(-3.33 -7.73)"/></svg>