<svg id="Capa_1" data-name="Capa 1" xmlns="http://www.w3.org/2000/svg" viewBox="0 0 197 195.82"><title>consupe_logo</title><path d="M90.26,2.45a123.79,123.79,0,0,1,21,.16,98.48,98.48,0,0,1,74.82,49.61,97.73,97.73,0,0,1,.25,95,98.78,98.78,0,0,1-160.57,17A98,98,0,0,1,1.78,107.79a97.86,97.86,0,0,1,57.28-97A104,104,0,0,1,90.26,2.45m1.27,11.46A89.43,89.43,0,0,0,49,30.07,86.26,86.26,0,0,0,13.24,95.51a85.66,85.66,0,0,0,22.23,62.25,87.28,87.28,0,0,0,96.36,22.52,86.4,86.4,0,0,0,36.06-26.44,84.79,84.79,0,0,0,18.6-45.32,85.64,85.64,0,0,0-11.06-51.4,87,87,0,0,0-42.92-37.25,89.61,89.61,0,0,0-41-6Z" transform="translate(-1.5 -2.09)"/><path d="M125.1,42.84c5.51-.73,10.93,4.32,10.56,9.87a8.94,8.94,0,0,1-3,6.77A9.72,9.72,0,0,1,121.64,61a11.48,11.48,0,0,1-3.87-3.67,9.68,9.68,0,0,1,.12-10.16,10.19,10.19,0,0,1,7.22-4.28Z" transform="translate(-1.5 -2.09)"/><path d="M68.6,43.61a10.4,10.4,0,0,1,9.63,2.49,9.26,9.26,0,0,1,2.37,9.06,9.8,9.8,0,0,1-9.34,7.42,9.7,9.7,0,0,1-9.1-6.44c-2-5,1.39-11.06,6.45-12.53Z" transform="translate(-1.5 -2.09)"/><path d="M104.18,67.15a13,13,0,0,1,8.32-5.67,12.28,12.28,0,0,1,11.67,5.63,12,12,0,0,1,1.38,8.44c-1,4.53-4.57,7.92-6,12.24,5.8.49,12.32-1.18,17.5,2.33,5.55,3.55,6.45,12.12,2.2,17.05a11.51,11.51,0,0,1-6.49,3.63c-4.65.94-9.42-.16-14.11.41,1.87,4.89,6.2,9,6.16,14.48s-4.28,10.32-9.55,11.38a11,11,0,0,1-9.62-2.57c-2.73-2.41-4-5.88-6-8.85-.33-.49-.57-1.3-1.35-1.1-2.73,3.92-4.32,9.18-9,11.34-5.06,2.65-11.55.45-14.69-4.12a11.14,11.14,0,0,1-1.43-9.91c1.27-3.87,4-7,5.71-10.65-5.34-.41-11.18.94-16-2A11.47,11.47,0,0,1,66.4,88.37c3.84-.86,7.75-.41,11.67-.57-1.71-3.47-4.28-6.49-5.63-10.12a12.43,12.43,0,0,1-.25-7.79,11.57,11.57,0,0,1,18.64-5.34c3.63,3.18,4.61,8.36,8.08,11.71,2-2.94,3.34-6.16,5.26-9.1Z" transform="translate(-1.5 -2.09)"/><path d="M43.35,90.53c6.2-1.22,12.56,4.9,11.42,11.14-.57,5.51-6.36,9.5-11.71,8.52a9.92,9.92,0,0,1-6.69-4.65,10.38,10.38,0,0,1,.08-10.65,10.57,10.57,0,0,1,6.9-4.37Z" transform="translate(-1.5 -2.09)"/><path d="M152.6,90.49A10.27,10.27,0,0,1,164,97.59a9.32,9.32,0,0,1-2.53,9c-4,4-11.34,3.75-15-.69A9.53,9.53,0,0,1,145.21,96a10.27,10.27,0,0,1,7.39-5.51Z" transform="translate(-1.5 -2.09)"/><path d="M123.72,136.59c5.46-1.43,11.58,3,11.83,8.69.57,5.84-5.26,11.1-11,10.2a9.12,9.12,0,0,1-7.34-5.1,9.49,9.49,0,0,1,.37-9.42,10.36,10.36,0,0,1,6.16-4.36Z" transform="translate(-1.5 -2.09)"/><path d="M70.23,137c5.3-1.51,11.3,2.53,12,8a9.48,9.48,0,0,1-3.39,8.81,9.72,9.72,0,0,1-15.79-8.94A10,10,0,0,1,70.23,137Z" transform="translate(-1.5 -2.09)"/></svg>